{
    "accessors" : [
        {
            "bufferView" : 0,
            "componentType" : 5123,
            "count" : 4404,
            "max" : [
                2879
            ],
            "min" : [
                0
            ],
            "type" : "SCALAR"
        },
        {
            "bufferView" : 1,
            "componentType" : 5126,
            "count" : 2880,
            "max" : [
                2.8777029514312744,
                5.93556547164917,
                2.8777036666870117
            ],
            "min" : [
                -2.8777034282684326,
                -0.10096409171819687,
                -2.877702474594116
            ],
            "type" : "VEC3"
        },
        {
            "bufferView" : 2,
            "componentType" : 5126,
            "count" : 2880,
            "max" : [
                0.9951843023300171,
                1.0,
                0.9951842427253723
            ],
            "min" : [
                -0.9951843023300171,
                -1.0,
                -0.9951843619346619
            ],
            "type" : "VEC3"
        }
    ],
    "asset" : {
        "generator" : "Khronos Blender glTF 2.0 exporter",
        "version" : "2.0"
    },
    "bufferViews" : [
        {
            "buffer" : 0,
            "byteLength" : 8808,
            "byteOffset" : 0,
            "target" : 34963
        },
        {
            "buffer" : 0,
            "byteLength" : 34560,
            "byteOffset" : 8808,
            "target" : 34962
        },
        {
            "buffer" : 0,
            "byteLength" : 34560,
            "byteOffset" : 43368,
            "target" : 34962
        }
    ],
    "buffers" : [
        {
            "byteLength" : 77928,
            "uri" : "mushroom1.bin"
        }
    ],
    "meshes" : [
        {
            "name" : "Cylinder",
            "primitives" : [
                {
                    "attributes" : {
                        "NORMAL" : 2,
                        "POSITION" : 1
                    },
                    "indices" : 0
                }
            ]
        }
    ],
    "nodes" : [
        {
            "mesh" : 0,
            "name" : "Cylinder",
            "scale" : [
                13.63526725769043,
                13.63526725769043,
                13.63526725769043
            ],
            "translation" : [
                0.0,
                1.2966636419296265,
                -0.0
            ]
        }
    ],
    "scene" : 0,
    "scenes" : [
        {
            "name" : "Scene",
            "nodes" : [
                0
            ]
        }
    ]
}
